<?xml version="1.0" standalone="no"?>
<!DOCTYPE svg PUBLIC "-//W3C//DTD SVG 20010904//EN"
 "http://www.w3.org/TR/2001/REC-SVG-20010904/DTD/svg10.dtd">
<svg version="1.0" xmlns="http://www.w3.org/2000/svg"
 width="1280.000000pt" height="1151.000000pt" viewBox="0 0 1280.000000 1151.000000"
 preserveAspectRatio="xMidYMid meet">
<g transform="translate(0.000000,1151.000000) scale(0.100000,-0.100000)"
fill="#000000" stroke="none">
<path d="M11109 11505 c-3 -2 -57 -18 -119 -34 -217 -56 -386 -134 -805 -372
-558 -318 -656 -369 -1180 -619 -437 -208 -593 -288 -917 -471 -833 -470
-1436 -877 -2646 -1786 -243 -183 -450 -333 -458 -333 -16 0 -30 13 -138 129
-52 56 -119 100 -153 101 -7 0 33 -44 87 -97 55 -54 100 -105 100 -114 0 -13
-16 -17 -77 -23 -155 -13 -147 -15 -183 62 -32 68 -83 132 -107 132 -17 0 -17
-16 1 -23 19 -8 90 -152 83 -170 -3 -9 -27 -17 -64 -21 -32 -4 -75 -9 -95 -12
-28 -4 -39 -2 -44 9 -5 15 35 101 77 165 24 36 21 39 -21 17 -20 -10 -39 -37
-64 -87 -19 -40 -37 -81 -40 -91 -7 -21 -45 -37 -88 -37 -24 0 -46 14 -99 65
-38 35 -86 73 -107 84 -39 20 -112 38 -112 28 0 -4 21 -21 48 -38 72 -49 162
-129 162 -145 0 -12 -35 -25 -106 -40 -26 -5 -33 -1 -61 40 -35 50 -93 88 -93
61 0 -25 -77 -58 -119 -50 -35 7 -35 6 -18 -12 9 -11 17 -25 17 -31 0 -15 -70
-122 -80 -122 -4 0 -38 34 -74 74 -46 52 -84 83 -122 102 -61 30 -83 26 -38
-7 47 -35 184 -180 184 -194 0 -7 -35 -33 -78 -58 -42 -25 -108 -68 -147 -96
-76 -56 -76 -56 -155 -37 -54 12 -56 14 -88 77 -30 59 -101 139 -124 139 -6 0
-3 -11 6 -25 66 -101 134 -243 143 -300 5 -31 -1 -41 -63 -109 -38 -42 -72
-76 -77 -76 -4 0 -44 25 -88 55 -74 51 -174 92 -201 83 -6 -2 15 -19 48 -37
32 -19 92 -56 131 -84 79 -54 87 -70 54 -115 -10 -15 -37 -64 -60 -109 -23
-46 -46 -83 -51 -83 -6 0 -43 34 -83 76 -124 131 -252 216 -377 249 -119 32
-321 11 -515 -53 -396 -130 -699 -414 -859 -804 -8 -21 -20 -38 -26 -38 -6 0
-39 20 -73 44 -34 24 -86 55 -114 70 -57 28 -161 59 -174 51 -12 -8 -150 -275
-229 -445 -134 -286 -242 -581 -310 -845 -44 -173 -122 -526 -122 -555 0 -14
13 -125 30 -248 22 -163 28 -245 25 -306 -5 -81 -5 -85 20 -110 21 -20 36 -26
72 -26 73 0 113 22 136 75 26 58 18 106 -24 141 -25 21 -44 62 -109 246 -43
121 -78 227 -78 235 0 9 18 48 39 87 94 171 241 516 345 809 48 135 134 413
216 695 11 39 26 72 33 72 7 0 27 -24 45 -54 34 -57 110 -140 175 -191 l38
-30 -17 -145 c-49 -433 57 -705 369 -949 37 -29 67 -58 67 -65 0 -7 -37 -31
-83 -54 -223 -111 -392 -260 -501 -442 l-47 -80 -40 -248 c-109 -681 -126
-817 -136 -1102 -6 -193 5 -389 32 -540 25 -142 41 -183 87 -230 42 -42 43
-44 43 -111 0 -53 5 -74 21 -96 35 -47 99 -44 159 8 63 55 46 106 -63 191 -15
12 -22 29 -22 50 0 47 -40 125 -94 185 l-47 52 15 53 c46 156 88 425 111 698
13 145 34 748 35 976 l0 61 86 42 c103 52 259 155 372 248 133 109 131 108
141 97 5 -5 31 -92 56 -194 85 -335 135 -447 286 -650 118 -159 185 -230 255
-270 68 -38 74 -57 67 -218 -7 -153 2 -187 59 -236 106 -91 296 -61 376 58 43
64 40 95 -10 119 -38 19 -38 19 -38 80 0 78 24 122 72 132 69 14 114 52 174
143 32 48 83 121 113 162 162 218 222 432 252 895 6 94 14 174 18 178 9 9 181
-195 181 -214 0 -6 -22 -36 -50 -66 -27 -30 -63 -82 -79 -116 -55 -115 -166
-519 -197 -716 -28 -179 0 -286 162 -622 57 -119 104 -222 104 -228 0 -6 -16
-43 -36 -82 -79 -157 -139 -389 -132 -513 3 -63 10 -85 56 -176 28 -58 91
-159 139 -225 l86 -120 1 -90 c1 -79 5 -98 33 -157 17 -36 54 -90 82 -119 28
-29 51 -57 51 -62 0 -5 -38 -49 -84 -98 -101 -107 -144 -186 -185 -335 -16
-60 -33 -117 -36 -127 -4 -9 -4 -17 -1 -17 4 0 79 38 169 85 180 94 267 129
368 150 60 13 78 13 137 0 72 -15 188 -55 284 -99 l58 -26 6 28 c3 15 22 88
42 162 64 245 39 339 -116 434 -32 19 -90 72 -131 116 -41 45 -103 105 -137
133 -35 28 -64 56 -64 64 0 7 11 46 25 86 43 129 58 245 52 407 -7 204 -48
346 -136 474 -17 25 -31 47 -31 50 0 4 20 31 45 61 78 96 99 156 120 333 29
243 20 305 -79 599 -30 90 -51 165 -47 168 5 2 35 -16 67 -41 73 -57 136 -90
211 -109 137 -37 292 -9 378 67 59 52 68 70 74 153 l6 70 115 -3 c103 -3 122
-7 176 -33 33 -16 71 -29 84 -29 l23 0 -23 24 -23 25 24 5 c13 2 86 12 161 21
105 12 147 13 177 5 22 -6 43 -14 45 -19 3 -5 -20 -44 -51 -87 -177 -246 -300
-503 -362 -756 -68 -274 -63 -497 15 -649 13 -27 24 -54 24 -61 0 -8 -43 -65
-95 -128 -297 -357 -378 -591 -346 -999 7 -86 23 -214 35 -286 l24 -130 -43
-95 c-82 -180 -115 -309 -115 -444 0 -142 54 -291 143 -390 l44 -50 43 65 c50
72 196 228 234 249 23 12 33 10 103 -22 43 -20 107 -45 143 -56 74 -24 310
-82 335 -82 21 0 -28 93 -227 430 -79 135 -157 268 -173 296 -34 60 -47 34
119 230 174 207 258 344 308 504 21 70 23 92 23 310 0 193 -4 267 -24 411
l-24 177 32 52 c17 28 69 102 113 163 162 223 190 263 228 327 52 89 85 171
116 287 24 86 27 121 30 283 4 210 -6 195 99 166 74 -20 138 -20 237 -1 175
33 227 82 237 225 l6 75 33 3 c38 4 42 19 7 28 -14 4 -24 11 -22 18 6 19 57
18 110 -3 71 -27 109 -33 138 -22 l24 9 -28 11 c-16 6 -33 11 -38 11 -5 0 -9
6 -9 13 0 11 127 57 158 57 7 0 34 -14 59 -31 25 -18 62 -33 86 -36 l42 -5
-62 42 c-35 24 -63 48 -63 54 0 7 19 23 43 36 23 13 61 36 84 52 23 15 43 28
45 28 2 0 30 -20 63 -45 35 -26 89 -83 131 -137 86 -114 147 -164 334 -276
l145 -87 46 -135 c56 -165 84 -231 161 -384 147 -288 340 -525 543 -668 175
-123 607 -364 740 -413 54 -20 85 -41 85 -59 0 -7 16 -45 36 -86 55 -117 118
-171 236 -206 56 -17 57 -18 123 -194 48 -127 69 -170 84 -170 4 0 57 60 118
133 60 72 128 144 149 159 38 26 43 26 234 31 195 4 230 9 230 31 0 29 -82
147 -155 222 -118 121 -295 227 -418 249 -29 6 -41 14 -49 34 -6 14 -28 63
-49 107 -46 96 -118 169 -201 204 l-54 22 -134 221 c-167 273 -286 455 -390
596 -76 103 -91 131 -72 131 5 0 35 -9 66 -20 83 -28 194 -47 324 -55 l112 -8
58 -106 c31 -58 75 -124 98 -147 83 -84 229 -130 385 -121 l95 6 19 -31 c32
-55 163 -184 241 -238 93 -64 220 -124 321 -152 61 -16 108 -21 218 -22 166
-1 253 19 391 90 l85 43 38 -20 c93 -48 225 -46 404 6 l88 25 77 -19 c94 -24
292 -58 387 -67 89 -8 106 4 171 124 89 163 104 197 118 272 38 202 45 342 26
527 -5 54 -17 168 -25 254 -66 688 -282 1169 -598 1330 -39 20 -61 39 -68 57
-6 15 -44 143 -85 285 -79 276 -117 372 -189 472 -121 170 -381 313 -742 410
l-102 28 -57 111 c-140 278 -306 468 -493 565 -97 50 -244 95 -396 121 -199
34 -203 37 -97 68 338 100 503 151 859 263 408 128 527 172 633 231 198 113
361 263 443 410 49 88 63 102 257 258 176 142 289 264 336 364 61 131 94 235
94 300 0 164 -124 327 -320 420 -56 26 -81 31 -180 37 -147 9 -195 25 -436
150 -234 122 -320 147 -522 156 -73 3 -135 9 -137 13 -3 4 21 27 53 51 145
110 265 257 352 434 88 177 104 245 104 440 0 149 -1 165 -27 240 -52 149
-113 228 -212 275 -56 27 -113 38 -126 25z m-7172 -3690 c16 -29 19 -43 11
-52 -24 -29 -98 -3 -98 34 0 24 32 64 49 61 8 -2 25 -21 38 -43z m-97 -81 c0
-14 -46 -31 -57 -20 -3 3 2 15 11 25 19 21 46 18 46 -5z m-565 -318 c16 -12
17 -16 6 -30 -17 -20 -37 -21 -45 0 -16 42 3 57 39 30z m5323 -3265 c41 -5 75
-11 77 -13 3 -3 148 -237 174 -280 8 -15 13 -30 9 -33 -3 -3 -44 13 -89 36
-46 23 -120 54 -164 69 l-79 27 -17 67 c-9 37 -22 80 -29 96 -15 35 -6 52 23
45 12 -2 55 -9 95 -14z"/>
</g>
</svg>
