<?xml version="1.0" standalone="no"?>
<!DOCTYPE svg PUBLIC "-//W3C//DTD SVG 20010904//EN"
 "http://www.w3.org/TR/2001/REC-SVG-20010904/DTD/svg10.dtd">
<svg version="1.0" xmlns="http://www.w3.org/2000/svg"
 width="1280.000000pt" height="778.000000pt" viewBox="0 0 1280.000000 778.000000"
 preserveAspectRatio="xMidYMid meet">
<g transform="translate(0.000000,778.000000) scale(0.100000,-0.100000)"
fill="#000000" stroke="none">
<path d="M8355 7732 c-138 -93 -424 -407 -440 -484 -9 -39 -52 -127 -102 -206
-19 -31 -122 -145 -227 -252 -633 -644 -1238 -1296 -1472 -1585 -37 -46 -103
-143 -130 -190 -9 -16 -27 -21 -90 -28 -222 -21 -452 -63 -669 -122 -102 -28
-115 -30 -115 -14 0 7 38 78 84 158 149 260 156 278 156 376 0 109 -24 216
-57 256 l-25 30 -106 -3 -107 -3 -170 -320 c-93 -177 -193 -364 -222 -416
l-52 -96 -53 -6 c-29 -4 -72 -7 -95 -7 -40 0 -42 1 -76 63 -82 146 -153 232
-199 242 -62 14 -191 -88 -241 -192 -19 -39 -20 -47 -8 -93 7 -28 11 -53 9
-55 -2 -3 -49 -9 -104 -16 -180 -20 -387 -49 -529 -73 -77 -13 -162 -27 -188
-31 l-49 -6 4 -76 c4 -89 -10 -104 -38 -41 -51 113 -159 220 -261 258 -188 70
-739 -44 -936 -195 -31 -23 -54 -34 -66 -30 -46 14 -315 551 -458 915 -114
289 -263 742 -428 1300 -117 398 -169 530 -205 530 -20 0 -49 -40 -56 -77 -11
-57 11 -141 48 -186 41 -52 100 -233 229 -710 137 -509 160 -585 217 -717 143
-334 440 -950 510 -1056 22 -33 54 -71 71 -83 17 -12 31 -28 31 -34 1 -26 -55
-207 -65 -211 -19 -7 -330 92 -489 154 -178 71 -262 121 -304 182 -43 62 -119
204 -362 673 -310 600 -409 773 -452 796 -25 13 -68 -13 -68 -41 0 -44 682
-1362 789 -1523 29 -45 72 -68 513 -272 161 -75 304 -143 317 -152 19 -12 22
-20 17 -46 -17 -82 -37 -252 -42 -352 -8 -143 4 -209 54 -283 21 -31 76 -131
123 -221 47 -91 102 -184 125 -210 l42 -46 94 3 94 2 64 -61 c153 -144 370
-279 449 -279 48 0 73 20 146 115 32 41 61 75 66 75 10 0 13 -12 44 -155 14
-66 28 -128 31 -137 7 -24 109 -70 147 -66 31 3 32 4 31 48 -1 28 -23 98 -58
187 -31 79 -56 157 -56 174 0 47 27 143 72 254 47 114 53 125 79 125 24 0 27
-18 32 -175 2 -82 8 -139 16 -155 18 -33 110 -155 155 -204 20 -22 44 -63 53
-92 16 -51 16 -52 -8 -85 -37 -52 -32 -99 20 -204 28 -57 62 -107 94 -139 l50
-50 -12 -62 c-26 -140 -143 -468 -231 -644 -63 -127 -97 -180 -273 -418 -157
-214 -217 -305 -217 -332 0 -8 9 -23 20 -33 23 -19 25 -52 8 -110 -14 -45 -42
-76 -142 -154 -101 -79 -166 -144 -166 -166 0 -10 8 -34 19 -55 10 -20 21 -54
25 -75 4 -20 10 -37 14 -37 51 0 482 321 496 368 2 9 8 42 12 72 5 41 14 62
35 84 38 39 101 187 188 441 59 171 98 262 211 490 128 259 177 342 311 529
108 153 118 274 28 345 -26 20 -99 133 -99 152 0 17 82 119 96 119 7 0 51 -33
97 -74 103 -90 200 -159 258 -186 33 -15 66 -20 133 -20 l89 0 67 -64 c114
-107 389 -274 481 -291 48 -9 66 2 159 89 74 71 78 73 286 159 l212 87 278
-20 c478 -33 546 -35 582 -16 17 9 67 50 111 91 45 41 87 75 95 75 29 0 49
-56 71 -203 8 -51 38 -205 69 -342 30 -138 60 -277 66 -310 17 -84 179 -536
201 -561 11 -12 19 -35 19 -56 0 -23 10 -49 28 -74 41 -55 200 -204 278 -260
62 -44 72 -48 143 -54 42 -3 81 -8 87 -12 6 -4 21 -36 34 -70 41 -113 96 -178
149 -178 58 0 171 100 187 167 12 47 -176 259 -276 312 -44 24 -98 70 -193
168 -73 74 -160 153 -194 176 -35 23 -66 50 -69 62 -4 11 -30 74 -59 140 -29
66 -73 177 -99 248 -50 138 -156 496 -156 527 0 13 10 21 32 25 18 4 44 16 59
27 23 17 47 20 185 24 170 5 266 17 300 39 12 7 34 43 49 79 15 36 32 66 38
66 5 0 41 -11 79 -25 77 -28 116 -32 124 -12 2 7 -2 40 -11 72 -31 119 -27
125 139 249 105 78 124 81 191 30 l47 -35 25 23 c37 33 83 108 83 134 0 31
-119 140 -168 155 -53 15 -67 8 -292 -156 -286 -209 -312 -222 -383 -191 -30
13 -159 118 -165 134 -1 4 38 39 88 77 l90 69 198 33 c360 59 539 117 581 188
11 19 30 37 43 39 13 3 109 22 213 41 210 40 463 103 545 135 89 35 108 54
112 108 l3 47 95 13 c202 27 522 84 628 112 125 33 181 58 208 94 16 19 42 29
144 51 448 96 729 188 761 247 5 10 7 33 4 52 -8 38 -31 26 220 118 145 53
342 140 396 173 69 43 89 65 89 99 0 41 3 44 85 101 189 133 343 257 373 303
9 14 16 39 17 56 0 26 13 41 100 110 55 44 146 125 203 181 l102 100 59 135
c31 74 68 166 82 204 l24 69 -35 29 c-66 56 -271 187 -328 209 -45 18 -75 22
-142 21 -96 -2 -331 -34 -463 -62 -147 -32 -159 -40 -277 -189 -93 -117 -113
-136 -175 -170 -38 -22 -113 -67 -165 -102 -52 -34 -122 -73 -155 -87 -80 -32
-175 -81 -325 -165 -106 -60 -131 -70 -168 -68 -72 3 -312 -71 -653 -202 -66
-26 -67 -26 -84 -7 -33 36 -40 34 -447 -144 -195 -85 -218 -93 -218 -78 0 18
108 127 194 196 113 92 344 320 385 383 25 37 31 57 31 98 0 62 -24 158 -50
200 -10 17 -26 64 -34 104 -29 137 -89 190 -216 191 -54 0 -78 -6 -137 -34
-98 -47 -186 -134 -370 -363 -316 -396 -496 -596 -623 -693 -41 -32 -128 -108
-194 -169 -65 -61 -125 -111 -133 -111 -11 0 -13 11 -7 60 8 76 -3 90 -103
136 -40 19 -73 36 -73 38 0 3 9 28 20 56 20 51 25 104 14 135 -18 47 -171 80
-417 91 -103 5 -150 11 -154 19 -7 20 358 737 504 988 176 305 445 708 575
863 146 174 268 363 302 470 16 49 16 54 -4 103 -54 138 -139 268 -201 306
-21 14 -42 25 -46 25 -5 0 -39 -22 -78 -48z"/>
</g>
</svg>
