<?xml version="1.0" standalone="no"?>
<!DOCTYPE svg PUBLIC "-//W3C//DTD SVG 20010904//EN"
 "http://www.w3.org/TR/2001/REC-SVG-20010904/DTD/svg10.dtd">
<svg version="1.0" xmlns="http://www.w3.org/2000/svg"
 width="1153.000000pt" height="1280.000000pt" viewBox="0 0 1153.000000 1280.000000"
 preserveAspectRatio="xMidYMid meet">
<metadata>
Created by potrace 1.15, written by Peter Selinger 2001-2017
</metadata>
<g transform="translate(0.000000,1280.000000) scale(0.100000,-0.100000)"
fill="#000000" stroke="none">
<path d="M6844 12785 c-86 -18 -118 -38 -201 -118 -67 -65 -72 -72 -67 -105
11 -85 116 -208 202 -236 50 -17 51 -18 40 -44 -133 -340 -193 -614 -218 -997
-6 -96 -22 -214 -45 -329 -22 -112 -40 -239 -47 -338 -9 -133 -14 -158 -27
-158 -9 0 -54 5 -101 10 -76 9 -527 15 -561 8 -10 -2 -16 28 -25 127 -42 428
-163 939 -355 1501 -36 104 -57 180 -50 182 5 2 37 21 70 42 176 114 212 313
73 407 -50 33 -123 38 -264 17 l-123 -18 -96 -62 c-146 -96 -199 -164 -199
-257 0 -61 41 -138 92 -173 38 -27 48 -29 132 -29 50 0 109 4 132 9 l41 8 76
-228 c67 -201 91 -297 201 -794 102 -460 126 -582 128 -658 l3 -94 -90 -23
c-111 -28 -174 -55 -235 -100 -75 -55 -226 -121 -309 -134 -145 -23 -266 -87
-387 -206 -142 -140 -213 -294 -221 -485 -7 -159 32 -309 114 -439 l35 -54
-55 -116 c-68 -143 -77 -170 -77 -237 0 -67 11 -95 59 -153 21 -25 54 -71 73
-102 47 -73 141 -173 250 -265 52 -43 84 -76 76 -79 -7 -2 -80 -25 -163 -51
-386 -119 -580 -209 -753 -350 -28 -23 -100 -63 -161 -89 -60 -27 -133 -66
-161 -87 l-51 -39 -27 19 c-54 38 -378 201 -428 215 -70 21 -127 51 -205 108
-68 50 -115 73 -209 104 -30 10 -106 40 -169 67 -143 61 -184 68 -245 38 -105
-50 -248 -266 -514 -775 l-99 -190 -39 1 c-21 1 -75 5 -120 9 -64 6 -91 4
-131 -9 -27 -9 -106 -21 -174 -26 -139 -10 -249 -32 -294 -60 -67 -42 -74 -90
-40 -288 49 -292 70 -351 131 -377 49 -20 91 -19 204 7 84 19 123 21 346 20
291 -2 293 -1 351 98 17 30 54 82 82 115 28 33 65 83 82 110 17 28 50 73 74
100 44 52 154 214 219 323 21 34 40 62 42 62 3 0 30 -11 62 -24 31 -13 100
-37 152 -55 57 -18 139 -57 205 -96 61 -36 116 -65 123 -65 19 0 18 -1 -78
-139 -225 -321 -314 -493 -428 -826 -176 -509 -221 -682 -239 -912 -3 -46 -9
-83 -12 -83 -3 0 -42 12 -86 26 -43 14 -131 31 -195 39 -82 9 -153 25 -241 55
-139 46 -300 87 -381 95 -72 8 -113 -14 -154 -82 -39 -66 -80 -211 -94 -328
-10 -95 -30 -182 -54 -240 -12 -29 -23 -36 -68 -49 -65 -19 -272 -58 -480 -91
-236 -37 -297 -51 -368 -87 -48 -25 -70 -43 -85 -70 -19 -36 -19 -38 -1 -130
25 -132 62 -268 92 -346 31 -81 84 -135 148 -151 30 -7 197 -11 501 -11 402 0
461 2 491 16 19 9 39 24 44 34 9 17 60 162 160 456 27 78 56 156 65 174 18 35
18 35 100 2 88 -36 225 -55 393 -56 130 -1 162 2 188 16 l31 17 7 -97 c23
-316 100 -698 205 -1022 27 -85 48 -156 46 -158 -4 -4 -115 -14 -346 -32 -137
-10 -226 -31 -291 -69 -18 -11 -71 -27 -118 -36 -81 -16 -261 -81 -362 -131
-85 -43 -118 -110 -118 -245 0 -118 25 -234 86 -401 54 -149 158 -481 170
-544 9 -49 -21 -64 -126 -64 -66 0 -118 -8 -225 -36 -140 -36 -220 -56 -390
-95 -49 -12 -118 -34 -152 -49 -61 -28 -163 -112 -163 -134 0 -7 25 -36 56
-66 31 -30 132 -138 224 -240 198 -219 219 -233 350 -238 55 -2 127 4 205 17
66 11 215 32 330 45 116 14 264 37 330 51 89 19 148 26 228 26 63 -1 107 3
107 9 0 5 -11 63 -25 127 -42 201 -65 351 -75 497 -6 78 -21 198 -35 269 -42
214 -33 272 52 324 26 16 84 60 128 97 47 40 121 88 179 118 55 27 129 68 164
89 92 56 108 53 159 -30 38 -60 233 -330 389 -536 151 -200 314 -333 749 -607
127 -80 298 -192 380 -250 246 -172 416 -271 675 -393 149 -70 391 -170 540
-223 47 -17 175 -63 285 -103 191 -69 204 -72 290 -73 96 0 149 16 345 107 42
19 157 64 255 100 312 113 403 153 550 242 39 23 124 70 190 103 66 34 172
100 235 148 67 50 157 106 216 134 141 68 221 136 457 387 263 280 351 388
502 615 l58 87 26 -18 c14 -11 37 -31 51 -46 14 -15 49 -43 77 -62 29 -18 61
-45 70 -59 24 -37 21 -124 -10 -279 -14 -71 -28 -179 -32 -240 -3 -60 -13
-154 -21 -209 -14 -97 -70 -394 -80 -428 -5 -16 4 -18 93 -17 88 1 324 -28
493 -61 346 -67 612 -98 678 -81 64 18 150 89 261 217 57 65 133 145 168 178
35 32 70 71 78 87 26 50 16 114 -24 147 -37 30 -149 73 -263 101 -317 76 -521
121 -612 135 -54 8 -102 18 -107 23 -4 4 23 100 62 213 142 414 204 673 197
821 -4 77 -7 91 -32 124 -37 48 -75 71 -161 96 -38 11 -152 47 -252 80 -100
32 -189 59 -198 59 -24 0 -18 20 35 110 74 124 115 215 144 316 80 280 219
838 238 955 l23 137 65 6 c36 3 86 6 113 6 42 0 49 -3 57 -26 6 -14 10 -72 10
-128 0 -122 25 -388 43 -467 17 -70 53 -119 114 -151 70 -38 728 -186 904
-204 73 -7 129 12 129 44 0 20 58 110 152 237 71 95 84 118 93 168 19 100 -31
167 -175 235 -52 25 -140 71 -195 102 -126 72 -230 125 -298 151 -28 11 -92
39 -141 62 l-89 42 7 85 c27 341 25 514 -6 562 -20 31 -92 65 -164 80 -36 7
-165 12 -326 12 l-267 1 -5 70 c-18 228 -38 433 -52 525 -60 412 -194 854
-339 1118 -19 34 -35 64 -35 66 0 3 62 34 137 71 l137 67 16 -23 c8 -13 53
-72 100 -131 47 -59 109 -147 139 -195 246 -397 295 -450 431 -472 36 -6 208
-11 383 -11 l319 0 27 28 c38 37 65 114 101 287 52 250 39 315 -73 369 -77 38
-145 46 -393 46 -122 0 -242 3 -268 6 l-47 7 -70 139 c-258 515 -422 748 -561
794 -149 49 -296 1 -641 -213 l-169 -103 -61 44 c-34 24 -129 103 -212 176
-82 72 -193 160 -246 196 -179 119 -451 232 -727 301 -81 20 -148 38 -150 39
-2 1 9 19 23 40 38 55 129 239 149 302 10 29 28 65 40 80 32 38 56 87 56 114
0 27 -18 55 -69 113 -20 22 -49 67 -64 100 l-28 60 34 57 c79 131 117 329 97
504 -21 192 -84 319 -224 451 -139 132 -247 174 -461 178 l-120 2 -133 66
c-73 36 -165 76 -204 89 l-71 23 7 91 c3 51 67 439 141 863 107 611 141 785
164 843 l29 73 93 6 c183 11 268 65 299 190 48 192 -244 355 -526 294z"/>
</g>
</svg>
